<svg width="500" height="500" viewBox="0 0 500 500" xmlns="http://www.w3.org/2000/svg">
    <rect width="500" height="500" fill="#fcfbf9" />

    <g fill="#bdc3c7">
        <path d="M0,420 Q50,400 100,420 T200,420 T300,420 T400,420 T500,420 V500 H0 Z" fill="#d0d3d4" opacity="0.5"/>

        <rect x="60" y="270" width="50" height="150" />
        <rect x="75" y="290" width="15" height="25" fill="#7f8c8d"/>
        <rect x="75" y="330" width="15" height="25" fill="#7f8c8d"/>

        <rect x="130" y="310" width="60" height="110" />
        <rect x="145" y="330" width="15" height="20" fill="#7f8c8d"/>

        <g transform="translate(320, 250) rotate(15)">
            <rect x="0" y="0" width="60" height="160" fill="#bdc3c7"/>
            <rect x="10" y="20" width="15" height="20" fill="#7f8c8d"/>
            <rect x="35" y="20" width="15" height="20" fill="#7f8c8d"/>
            <rect x="10" y="60" width="15" height="20" fill="#7f8c8d"/>
            <polyline points="0,50 20,70 10,90 30,110" fill="none" stroke="#7f8c8d" stroke-width="2"/>
        </g>

        <rect x="420" y="300" width="50" height="120" />
    </g>

    <polygon points="120,130 150,130 120,190 140,190 110,250 100,210 120,210" fill="#f1c40f" />

    <g fill="#7f8c8d">
        <circle cx="100" cy="100" r="40" />
        <circle cx="140" cy="80" r="50" />
        <circle cx="190" cy="100" r="40" />
        <rect x="100" y="100" width="90" height="40" />
    </g>

    <g transform="translate(160, 330)">
        <rect x="0" y="40" width="110" height="60" fill="#f0f3f4"/>
        <rect x="30" y="40" width="20" height="20" fill="#bdc3c7" opacity="0.5"/> <rect x="70" y="40" width="20" height="20" fill="#bdc3c7" opacity="0.5"/> <rect x="10" y="60" width="25" height="40" fill="#bdc3c7" opacity="0.5"/> <path d="M-10,40 L55,0 L120,40" fill="#e74c3c" />
    </g>

    <g transform="translate(195, 160)">
        <path d="M40,0 C18,0 0,18 0,40 C0,70 40,110 40,110 C40,110 80,70 80,40 C80,18 62,0 40,0 Z" fill="#e74c3c"/>
        <circle cx="40" cy="40" r="15" fill="#fcfbf9"/> </g>

    <g transform="translate(360, 300)">
        <path d="M60,10 L110,90 L10,90 Z" fill="#fcfbf9" stroke="#e74c3c" stroke-width="8" stroke-linejoin="round"/>
        <rect x="55" y="35" width="10" height="30" fill="#e74c3c" />
        <circle cx="60" cy="78" r="6" fill="#e74c3c" />
    </g>
</svg>